# xmcd
#
# Track frame offsets: 
#        150
#        20674
#        42826
#        58751
#        79459
#        94189
#        109571
#        132645
#        152943
#        172456
#        191089
#        203081
#        225291
#        242710
#        261211
#        274842
#        284220
#        302400
#        316902
#        330799
#
# Disc length: 4646 seconds
#
# Revision: 0
# Processed by: cddbd v1.5.2PL0 Copyright (c) Steve Scherf et al.
# Submitted via: ExactAudioCopy v0.95a5
#
DISCID=25122414
DTITLE=Lionel Richie - Just for You
DYEAR=2004
DGENRE=Soul
TTITLE0=Just For You
TTITLE1=I Still Believe
TTITLE2=Just To Be With You
TTITLE3=She's Amazing
TTITLE4=Ball And Chain
TTITLE5=Time Of Our Life
TTITLE6=Dance For The World
TTITLE7=In My Dreams
TTITLE8=One World
TTITLE9=Heaven
TTITLE10=Do Ya Duett with Daniel Bedingfield
TTITLE11=In My Dreams
TTITLE12=One World
TTITLE13=All Night Long
TTITLE14=Easy
TTITLE15=Still
TTITLE16=Hello
TTITLE17=Trully
TTITLE18=Stuck on You
TTITLE19=Say You, Say Me
EXTD=
EXTT0=
EXTT1=
EXTT2=
EXTT3=
EXTT4=
EXTT5=
EXTT6=
EXTT7=
EXTT8=
EXTT9=
EXTT10=
EXTT11=
EXTT12=
EXTT13=
EXTT14=
EXTT15=
EXTT16=
EXTT17=
EXTT18=
EXTT19=
PLAYORDER=
